<?xml version="1.0" encoding="UTF-8"?><svg id="Layer_1" xmlns="http://www.w3.org/2000/svg" viewBox="0 0 900 600"><defs><style>.cls-1{fill:#231f20;}</style></defs><path class="cls-1" d="M117.86,239.29c12.41-4.32,23.12-10.44,32.44-18.29,9.31-7.85,16.99-16.71,23.13-26.59,5.8-9.32,9.99-19.07,12.35-29.39,2.36-10.32,2.84-20.2,1.28-29.79-1.28-7.85-3.92-15.02-8.01-21.54-4.09-6.52-9.61-11.99-16.61-16.39-18.36-11.12-41.24-11.91-61.61-8.6-18.54,3.01-34.56,11.41-50.59,21.16-7.53,5.43-14.21,11.58-20.04,18.52-5.83,6.95-10.47,14.3-13.97,21.99-3.69,8.11-6.07,16.42-7.1,24.8-1.03,8.38-.51,16.58,1.52,24.44,3.24,12.56,8.6,20.75,15.71,24.31,6.44,3.22,15.22,2.77,26.18-1.16-.2-.8-.6-1.53-1.2-2.19-.88-.93-1.71-2.08-2.49-3.43-2.49-3.87-4.68-9.5-6.54-16.81-3.37-13.25-4.6-25.59-3.61-36.81,.99-11.22,4.18-20.98,9.59-29.31,5.41-8.34,12.84-15.18,22.25-20.63,9.42-5.45,20.67-9.29,33.64-11.56,6.8-1.19,13-1.15,18.55,.08,5.55,1.23,10.37,3.46,14.44,6.7,7.61,6.47,12.45,15.56,14.72,27.43,2.16,11.27,1.92,22.91-.34,34.98-2.36,12.58-6.48,23.85-12.43,33.71-6.57,10.88-14.17,18.37-23.15,22.13-1.31-37.25-2.16-74.46-2.19-111.73-15.26,4.74-30.46,9.89-45.45,15.42,2.68,75.6,19.5,229.68,24.5,305.14,16.32-8.84,24.16-12.97,39.59-20.56-1.71-32.27-14.78-143.18-16.11-175.47,.62-.22,.92-.32,1.54-.54Z"/><path class="cls-1" d="M243.68,197.26c1.58-8.6,3.94-15.34,7.08-20.14,3.7-5.65,8.24-8.72,13.42-9.21,7.37-.7,11.56,3.9,12.55,13.73,.4,4.02,.31,8.83-.25,14.41-.57,5.59-1.47,13.11-2.73,22.51-1.24,9.22-2.1,16.8-2.56,22.66-.46,5.86-.45,10.95,.03,15.27,1,9.11,4.31,16.25,9.76,21.43,6.3,5.99,15.18,8.26,26.77,6.94,9.77-1.11,18.16-4.96,25.33-11.55,5.22-4.98,9.51-10.81,13.1-17.1,2.48,5.44,5.93,9.86,10.32,13.26,7.99,6.19,18.87,8.84,32.83,8.13,8.63-.44,16.77-2.72,24.51-6.81,7.74-4.1,14.69-9.73,20.83-16.91,6.26-7.33,11.51-16.07,15.74-26.17,4.23-10.1,5.32-30.15,8.67-33.49,2.32-2.31,15.8-3.31,25.7-5.53-3.65,12.6-7.21,25.24-10.69,37.89-1.79,6.63-2.77,12.51-2.97,17.61-.41,10.82,2.32,19.09,7.95,24.81,5.05,5.14,12.04,7.86,21.06,8.16,6.44,.21,12.68-.58,18.74-2.36,8.34-2.45,16.14-6.64,23.16-12.58,2.36-2,4.64-4.23,6.86-6.67,1.62,5.83,4.5,10.76,8.62,14.77,7.03,6.84,17.46,10.86,31.44,12.26,8.64,.87,17.07,0,25.35-2.6,8.29-2.59,16.02-6.7,23.15-12.35,7.28-5.76,13.76-12.95,19.42-21.54,5.66-8.59,9.84-26.74,13.43-29.29,3.22-2.29,21.9,0,31.8-1.57,9.9-1.56,18.35-4.07,25.34-7.63-.45-2.87-.67-4.31-1.13-7.18-8.07,2.32-16.4,4-24.95,4.98-9.69,1.11-17.85,1.06-24.48-.22-.7-.14-1.05-.2-1.76-.34-.39-.07-.86-.25-1.42-.52,.02-.1,.03-.14,.05-.24,5.45-24.58-8.21-42.72-32.19-47-17.8-3.17-36.74-.16-52.18,9.16-12.2,7.36-24.45,21.43-30.41,34.48-3.31,6.35-5.89,12.74-7.77,19.14-1.88,6.4-3.07,12.29-3.58,17.65-.07,.72-.12,1.43-.16,2.13-2.12,2.84-4.5,5.3-7.16,7.35-2.45,1.88-5.06,3.31-7.84,4.29-2.78,.98-5.57,1.39-8.38,1.22-4.13-.25-7.05-1.14-8.78-2.71-1.73-1.57-2.47-4.17-2.21-7.8,.24-3.46,.82-6.29,1.74-8.49,8.09-26.02,16.51-51.95,25.4-77.71,7.42,.75,11.13,1.15,18.54,2,1.38-4.07,2.07-6.11,3.46-10.17-7.47-.89-11.2-1.32-18.68-2.12,5.7-16.19,8.61-24.24,14.54-40.26-15.89-.3-31.82-.28-47.71,.05-4.78,14.38-7.12,21.61-11.7,36.12-4.08-.31-6.12-.46-10.2-.73-1.24,4.23-1.86,6.35-3.08,10.6,4.11,.26,6.17,.4,10.28,.69-2.52,8.23-4.98,16.47-7.41,24.73-.15,.05-.31,.1-.46,.15-9.34,2.81-17.36,4.13-24.08,3.87-.71-.03-1.07-.04-1.78-.07-.4-.01-.89-.12-1.47-.32,0-.11,0-.16,0-.26,1.5-25.52-13.1-44.17-38.93-44.83-18.28-.47-36.49,6.05-49.96,18.28-11.1,10.07-20.84,27.01-24.57,41.61-2.26,7.29-3.81,14.5-4.66,21.61-.85,7.11-1.1,13.57-.77,19.37,.04,.63,.09,1.24,.14,1.86-1.76,4.06-3.48,7.23-5.15,9.47-3.66,4.91-8.31,7.62-14.01,8.14-4.2,.38-7.24-.38-9.14-2.3-1.9-1.92-3-4.79-3.31-8.6-.2-2.41-.09-5.62,.37-9.58,.72-6.22,2.2-14.71,4.11-25.14,1.13-6.17,1.86-10.9,2.32-14.01,1.76-10.74,2.46-19.37,1.99-25.94-.77-10.92-4.56-19-11.45-24.03-6.39-4.67-15.02-6.67-25.59-5.9-6,.44-11.49,1.82-16.46,4.13-6.72,3.13-12.76,8.16-18.02,15.07,2.7-24.77,5.61-49.5,8.75-74.22-15.74,3.05-31.48,6.18-47.12,9.71-6.24,69.76-9.14,139.55-10.26,209.57,15.02-4.86,48.29-13.77,48.29-13.77,0,0-6.27-61.13-3.43-93.31Zm347.78,41.17c1.14-8.77,4.23-18.59,9.43-29.33,5.32-10.99,11.64-19.93,18.73-26.77,7.78-7.51,15.19-10.74,22.07-9.55,2.09,.36,3.77,.91,5.03,1.64,1.26,.73,2.25,1.74,2.95,3.04,1.31,2.58,1.7,6.56,1.2,11.92-3.14,.54-5.73,1.82-7.78,3.82-2.05,2.01-3.34,4.73-3.9,8.17-.45,2.78-.21,5.17,.71,7.17,.92,1.99,2.78,3.55,5.58,4.69-2.39,7.06-5.26,13.59-8.6,19.61-3.34,6.02-6.95,11.18-10.81,15.5-3.87,4.32-7.75,7.6-11.67,9.82-3.92,2.23-7.54,3.15-10.91,2.75-2.9-.35-5.19-.92-6.89-1.75-1.69-.83-2.99-2.1-3.93-3.68-.97-1.62-1.62-3.82-1.79-6.55-.17-2.73,.02-6.22,.57-10.48Zm-201.84-41.09c3.52-12.57,8.36-23.13,14.27-31.59,6.49-9.28,13.28-13.94,20.23-13.81,2.11,.04,3.85,.35,5.21,.92,1.35,.57,2.48,1.49,3.37,2.76,1.68,2.54,2.69,6.72,3.03,12.52-3,1.09-5.35,2.88-7.05,5.36-1.7,2.48-2.55,5.6-2.57,9.36-.01,3.04,.59,5.55,1.81,7.53s3.28,3.34,6.21,4.09c-1.25,7.93-3.07,15.36-5.42,22.33-2.35,6.97-5.09,13.07-8.22,18.3-3.13,5.24-6.44,9.36-9.94,12.37-3.5,3.01-6.92,4.57-10.29,4.68-2.9,.1-5.25-.16-7.04-.77-1.79-.61-3.27-1.76-4.44-3.3-1.2-1.57-2.19-3.82-2.78-6.7-.59-2.88-.95-6.64-1.07-11.27-.25-9.53,1.27-20.5,4.71-32.79Z"/><path class="cls-1" d="M236.44,471.23c17.72-.74,34.73-8.17,47.25-20.59,10.75-10.67,19.49-28.23,23.63-42.35,3.97-13.58,6.58-30.28,6.44-44.67-.15-16.2-3.68-28.52-11.05-36.32-6.36-6.74-15.55-10.19-27.31-10.31-13.81-.13-26.03,4-36.67,12.57,2.02-9.08,7.47-30.04,7.47-30.04l-47.45,12.98s-35.47,156.91-52.68,238.72c15.8-4.7,31.6-9.41,47.41-14.12,5.39-25.21,10.81-50.42,16.26-75.62,2.25,3.4,5.21,5.81,8.74,7.26,4.68,1.93,10.71,2.79,17.95,2.48Zm-17.57-27.74c-1.99-1.28-3.35-2.9-4.07-4.87,6.16-28.48,12.34-56.95,18.56-85.42,2.86-4.83,6.24-8.52,10.13-11.06,3.89-2.54,7.72-3.8,11.51-3.79,4.3,.01,7.67,1.3,10.13,3.83,3.78,4.2,5.68,11.19,5.68,21.02,0,10.99-1.37,22.12-4.14,33.36-3.45,13.99-8.11,24.98-13.81,32.9-7.27,10.09-15.96,15.43-26.08,15.78-3.28,.11-5.91-.47-7.9-1.75Z"/><path class="cls-1" d="M669.39,300.59c1.84-7.58,5.22-13.05,10.13-16.35,3.67-2.47,7.62-3.6,11.81-3.42,3.37,.15,6.21,1,8.51,2.56,2.3,1.56,3.45,3.71,3.45,6.45,0,1.94-.21,4.15-.62,6.64,5.89,.22,8.84,.34,14.73,.58,.61-2.86,.92-6.22,.92-10.07s-1-7.44-2.99-10.8c-1.99-3.35-4.79-6.43-8.36-9.06-3.43-2.53-7.44-4.55-11.89-6.09-4.45-1.53-9.03-2.43-13.73-2.67-12.99-.67-23.93,1.43-32.83,6.35-12.38,6.85-20.51,18.45-24.39,34.7-4.74,18.26-9.45,36.54-14.14,54.82-.15,.05-.29,.1-.43,.15-9.48,3.26-17.75,4.94-24.7,5.01-.74,0-1.1,.01-1.84,.02-.41,0-.92-.07-1.53-.24v-.26c.76-25.44-15.31-42.02-40.35-42.18-18.39-.12-36.73,6.22-50.78,17.95-6.46,5.39-12.66,12.81-17.73,20.83-.33,.13-.66,.26-.99,.39-9.48,3.56-17.75,5.42-24.7,5.54-.74,.01-1.11,.02-1.84,.03-.41,0-.92-.07-1.53-.24v-.27c.76-25.78-14.19-44.46-40.35-44.53-18.6-.05-36.94,6.84-50.78,19.1-12.98,11.5-20.3,26.78-27.16,42.51-2.76,7.48-4.81,14.9-6.14,22.24-1.33,7.34-1.99,14.02-1.99,20.04,0,15.95,4.81,27.65,14.27,34.95,8.48,6.55,20.5,9.4,36.05,8.5,9.61-.55,18.72-3.1,27.31-7.56,8.59-4.46,16.24-10.54,22.86-18.2,6.75-7.82,12.27-17.07,16.57-27.66,4.3-10.59,4.88-31.16,8.28-34.81,2.14-2.3,13.32-3.98,22.91-6.37-.83,1.93-1.57,3.85-2.2,5.74-2.76,7.08-4.81,14.1-6.14,21.04-1.33,6.94-1.99,13.26-1.99,18.95,0,15.07,4.8,26.08,14.27,32.93,8.48,6.13,20.51,8.76,36.05,7.87,9.61-.55,18.72-2.96,27.31-7.17,8.59-4.21,16.24-9.93,22.86-17.13,6.75-7.35,12.27-16.04,16.57-26,4.3-9.95,5.08-29.37,8.28-32.75,2.41-2.54,16.41-4.07,26.58-6.71-7.02,27.42-13.99,54.86-20.9,82.32-9,2.66-16.49,5.18-22.48,7.53-5.98,2.35-11.26,4.99-15.72,7.95-5.11,3.38-9.03,7.36-11.74,11.81-2.71,4.44-4.06,9.69-4.06,15.72,0,4.19,1.02,7.98,3.07,11.35,2.05,3.37,4.87,6.33,8.44,8.67,3.42,2.25,7.44,3.87,11.89,4.89,4.45,1.02,9.03,1.33,13.73,.95,12.89-1.05,23.72-4.83,32.37-10.7,11.46-7.77,21.26-23.82,23.78-37.4,11.9-46.21,23.97-92.38,36.21-138.5,9.27,.13,13.9,.21,23.17,.38,.92-3.99,1.38-5.99,2.3-9.97-9.21-.21-13.81-.31-23.01-.49,2.15-7.95,3.22-11.92,5.37-19.83Zm-258.82,55.01c-1.74,2.6-2.61,5.84-2.61,9.7,0,3.13,.64,5.7,1.92,7.69,1.28,1.99,3.45,3.32,6.52,3.98-1.23,8.19-3.07,15.91-5.53,23.16-2.45,7.25-5.37,13.63-8.74,19.11-3.38,5.49-6.98,9.84-10.82,13.03-3.83,3.19-7.59,4.88-11.27,5.06-3.17,.15-5.73-.08-7.67-.69-1.94-.61-3.52-1.79-4.76-3.36-1.27-1.62-2.28-3.92-2.84-6.9-.56-2.97-.84-6.85-.84-11.63,0-9.84,1.94-21.17,5.83-33.88,3.98-12.99,9.18-23.91,15.34-32.71,6.77-9.65,13.65-14.57,20.71-14.61,2.15-.01,3.91,.25,5.29,.8,1.38,.54,2.53,1.45,3.45,2.73,1.74,2.56,2.81,6.81,3.22,12.76-3.07,1.23-5.48,3.15-7.21,5.75Zm137.92-1.9c-1.74,2.45-2.61,5.49-2.61,9.14,0,2.95,.64,5.37,1.92,7.26,1.28,1.88,3.45,3.14,6.52,3.78-1.23,7.72-3.07,14.98-5.52,21.81-2.46,6.83-5.37,12.83-8.74,18-3.38,5.17-6.98,9.27-10.82,12.27-3.84,3.01-7.59,4.61-11.28,4.77-3.17,.15-5.73-.07-7.67-.64-1.94-.57-3.52-1.68-4.76-3.16-1.27-1.53-2.28-3.7-2.84-6.5-.56-2.8-.84-6.47-.84-10.98,0-9.29,1.94-19.99,5.83-31.98,3.98-12.26,9.18-22.57,15.34-30.85,6.76-9.09,13.65-13.71,20.71-13.72,2.15,0,3.91,.25,5.29,.77,1.38,.52,2.53,1.38,3.45,2.59,1.74,2.42,2.81,6.43,3.22,12.05-3.07,1.15-5.47,2.94-7.21,5.39Zm31.3,118.71c-1.94,7.55-4.55,13.18-7.83,16.69-2.91,3.12-6.29,4.82-9.97,5.08-3.27,.23-6.31-.63-9.05-2.33-2.27-1.41-3.53-3.26-3.53-5.6,0-6.67,3.28-12.57,9.82-17.62,5.32-4.11,13.55-8.03,24.7-11.7-1.66,6.18-2.48,9.28-4.14,15.48Z"/><path class="cls-1" d="M770.4,404.91c-3.79-4.45-8.4-8.08-13.83-10.88-5.43-2.8-11.24-4.45-17.42-4.95-12.37-1-23.5,2.53-33.39,10.59-4.65,3.77-8.41,8.33-11.29,13.65-2.89,5.33-4.58,11.09-5.08,17.27-.5,6.18,.23,12.23,2.21,18.14,1.97,5.91,4.94,11.11,8.92,15.58,3.96,4.66,8.61,8.38,13.95,11.17,5.34,2.79,11.1,4.43,17.28,4.93,6.18,.5,12.18-.24,18-2.22,5.82-1.98,10.95-4.86,15.41-8.65,4.45-3.79,8.08-8.44,10.89-13.97,2.8-5.52,4.46-11.38,4.96-17.56,.5-6.18-.2-12.13-2.09-17.85-1.9-5.72-4.74-10.8-8.52-15.26Z"/><polygon class="cls-1" points="801.8 59.21 734.64 343.45 783.55 347.42 891.32 54.29 801.8 59.21"/><path class="cls-1" d="M253.11,498.89c-1.06-1.18-2.56-1.77-4.5-1.77-2.28,0-4.29,.74-6.05,2.23l.83-3.9h-7.46l-8.65,40.79,7.82-1.87,2.68-12.62c.37,.59,.85,1.02,1.44,1.29,.78,.37,1.76,.56,2.96,.56,3.1,0,5.7-1.06,7.79-3.19,1.7-1.72,3-4.14,3.9-7.26,.71-2.45,1.06-5.06,1.06-7.84s-.61-5.02-1.82-6.4Zm-5.95,12.02c-.57,2.41-1.33,4.28-2.28,5.62-1.2,1.7-2.63,2.55-4.3,2.55-.54,0-.97-.11-1.3-.34-.33-.23-.55-.51-.67-.85l3.06-14.5c.47-.83,1.03-1.46,1.67-1.9,.64-.44,1.27-.66,1.9-.66,.71,0,1.27,.22,1.67,.66,.62,.73,.94,1.94,.94,3.64,0,1.91-.23,3.83-.68,5.77Z"/><path class="cls-1" d="M358.34,497.11c-2.28,0-4.29,.74-6.05,2.23l.83-3.9h-7.46l-1.88,8.85s-.05,.02-.07,.03c-1.57,.64-2.93,.96-4.07,.96h-.3c-.07,0-.15-.02-.25-.05v-.05c0-5.52-2.22-8.27-6.65-8.27-3.24,0-6.03,1.15-8.37,3.44-1.94,1.87-3.43,4.38-4.48,7.51-.46,1.32-.79,2.62-1.01,3.91s-.33,2.47-.33,3.53c0,.14,.01,.27,.01,.4-.33,.6-.71,1.13-1.15,1.57-.4,.4-.85,.72-1.33,.95-.48,.23-.97,.34-1.48,.34-.74,0-1.28-.14-1.61-.43s-.49-.78-.49-1.49,.07-1.23,.2-1.67l3.31-15.53h3.11l.4-2.08h-3.11l1.77-8.2-7.67,1.04-1.57,7.16h-1.69l-.43,2.08h1.72l-1.04,4.85s-.05,.03-.08,.04c-1.57,.64-2.93,.96-4.07,.96h-.3c-.07,0-.15-.02-.25-.05v-.05c0-5.52-2.22-8.27-6.65-8.27-3.24,0-6.03,1.15-8.37,3.44-1.94,1.87-3.43,4.38-4.48,7.51-.46,1.32-.79,2.62-1.01,3.91s-.33,2.47-.33,3.53c0,.11,0,.21,.01,.32-.36,.72-.7,1.3-1.02,1.68-.71,.84-1.58,1.26-2.61,1.26-.76,0-1.29-.19-1.61-.57-.31-.38-.47-.92-.47-1.61,0-.44,.07-1.01,.2-1.72,.22-1.11,.57-2.61,1.06-4.48,.27-1.11,.46-1.95,.58-2.5,.44-1.92,.66-3.48,.66-4.68,0-1.99-.54-3.48-1.62-4.48-1.01-.91-2.4-1.37-4.15-1.37-1,0-1.92,.17-2.78,.51-1.16,.46-2.25,1.25-3.26,2.38l2.78-13.06-7.67,1.04-7.51,35.24h7.46l3.52-16.62c.46-1.47,1-2.6,1.62-3.39,.74-.93,1.55-1.39,2.43-1.39,1.25,0,1.87,.89,1.87,2.66,0,.73-.1,1.58-.29,2.57-.19,.99-.48,2.31-.87,3.96-.39,1.62-.68,2.94-.87,3.97-.19,1.03-.29,1.93-.29,2.71,0,1.64,.45,2.98,1.34,4.02,1.03,1.21,2.61,1.82,4.76,1.82,1.8,0,3.4-.54,4.78-1.62,.93-.72,1.78-1.7,2.55-2.93,.39,1.03,.97,1.89,1.75,2.58,1.4,1.25,3.38,1.87,5.95,1.87,1.59,0,3.09-.36,4.5-1.09,1.42-.72,2.67-1.76,3.77-3.11,1.11-1.38,2.02-3.04,2.73-4.97s1.16-4.07,1.37-6.41c1.57-.26,3.02-.67,4.37-1.21l-1.56,7.31c-.27,1.28-.4,2.41-.4,3.39,0,2.08,.54,3.65,1.62,4.73,.96,.98,2.27,1.47,3.92,1.47,1.18,0,2.31-.2,3.39-.61,1.48-.56,2.82-1.47,4-2.73,.39-.43,.76-.92,1.11-1.43,.39,1.13,.99,2.07,1.82,2.8,1.4,1.25,3.38,1.87,5.95,1.87,1.59,0,3.09-.36,4.5-1.09,1.42-.72,2.67-1.76,3.77-3.11,1.11-1.38,2.02-3.04,2.73-4.97s1.16-4.07,1.37-6.41c1.57-.26,3.02-.67,4.37-1.21l-6.27,29.55,7.82-1.87,2.68-12.62c.37,.59,.85,1.02,1.44,1.29,.78,.37,1.76,.56,2.96,.56,3.1,0,5.7-1.06,7.79-3.19,1.7-1.72,3-4.14,3.9-7.26,.71-2.45,1.06-5.06,1.06-7.84s-.61-5.02-1.82-6.4c-1.06-1.18-2.56-1.77-4.5-1.77Zm-61.28,6.98c-.29,.47-.43,1.06-.43,1.77,0,.57,.11,1.05,.32,1.42s.57,.62,1.08,.76c-.2,1.5-.51,2.91-.91,4.23s-.89,2.46-1.44,3.44c-.56,.98-1.15,1.74-1.78,2.29-.63,.55-1.25,.82-1.86,.82-.52,0-.94-.06-1.27-.19-.32-.13-.58-.34-.78-.65-.22-.3-.38-.72-.47-1.26s-.14-1.24-.14-2.1c0-1.77,.32-3.79,.96-6.07,.66-2.33,1.5-4.28,2.53-5.87,1.11-1.75,2.25-2.63,3.42-2.63,.35,0,.65,.05,.87,.15,.23,.1,.42,.27,.57,.51,.29,.47,.46,1.26,.53,2.35-.51,.22-.9,.56-1.19,1.04Zm36.58,0c-.29,.47-.43,1.06-.43,1.77,0,.57,.11,1.05,.32,1.42s.57,.62,1.08,.76c-.2,1.5-.51,2.91-.91,4.23s-.89,2.46-1.44,3.44c-.56,.98-1.15,1.74-1.78,2.29-.63,.55-1.25,.82-1.86,.82-.52,0-.94-.06-1.27-.19-.32-.13-.58-.34-.78-.65-.22-.3-.38-.72-.47-1.26s-.14-1.24-.14-2.1c0-1.77,.32-3.79,.96-6.07,.66-2.33,1.5-4.28,2.53-5.87,1.11-1.75,2.25-2.63,3.42-2.63,.35,0,.65,.05,.87,.15,.23,.1,.42,.27,.57,.51,.29,.47,.46,1.26,.53,2.35-.51,.22-.9,.56-1.19,1.04Zm23.25,6.81c-.57,2.41-1.33,4.28-2.28,5.62-1.2,1.7-2.63,2.55-4.3,2.55-.54,0-.97-.11-1.3-.34-.33-.23-.55-.51-.67-.85l3.06-14.5c.47-.83,1.03-1.46,1.67-1.9,.64-.44,1.27-.66,1.9-.66,.71,0,1.27,.22,1.67,.66,.62,.73,.94,1.94,.94,3.64,0,1.91-.23,3.83-.68,5.77Z"/><path class="cls-1" d="M423.31,493.27c.3-1.57,.86-2.71,1.67-3.44,.61-.54,1.26-.81,1.95-.81,.56,0,1.02,.15,1.4,.46s.57,.74,.57,1.32c0,.41-.03,.87-.1,1.39h2.43c.1-.61,.15-1.32,.15-2.12s-.16-1.56-.49-2.24c-.33-.68-.79-1.29-1.38-1.81-.57-.49-1.23-.87-1.96-1.14-.73-.27-1.49-.41-2.26-.41-2.14,0-3.95,.54-5.41,1.62-2.04,1.5-3.38,3.9-4.02,7.19l-2.34,11.02s-.04,.02-.07,.03c-1.57,.64-2.93,.96-4.07,.96h-.3c-.07,0-.15-.02-.25-.05v-.05c0-5.52-2.22-8.27-6.65-8.27-3.24,0-6.03,1.15-8.37,3.44-1.12,1.08-2.09,2.38-2.91,3.89-.06,.03-.12,.06-.18,.08-1.57,.64-2.93,.96-4.07,.96h-.3c-.07,0-.15-.02-.25-.05v-.05c0-5.52-2.22-8.27-6.65-8.27-3.24,0-6.03,1.15-8.37,3.44-1.94,1.87-3.43,4.38-4.48,7.51-.46,1.32-.79,2.62-1.01,3.91s-.33,2.47-.33,3.53c0,2.82,.78,4.92,2.35,6.3,1.4,1.25,3.38,1.87,5.95,1.87,1.59,0,3.09-.36,4.5-1.09,1.42-.72,2.67-1.76,3.77-3.11,1.11-1.38,2.02-3.04,2.73-4.97s1.16-4.07,1.37-6.41c1.33-.22,2.58-.55,3.76-.98-.12,.31-.23,.63-.34,.95-.46,1.32-.79,2.62-1.01,3.91s-.33,2.47-.33,3.53c0,2.82,.78,4.92,2.35,6.3,1.4,1.25,3.38,1.87,5.95,1.87,1.59,0,3.09-.36,4.5-1.09,1.42-.72,2.67-1.76,3.77-3.11,1.11-1.38,2.02-3.04,2.73-4.97s1.16-4.07,1.37-6.41c1.57-.26,3.02-.67,4.37-1.21l-3.43,16.19c-1.48,.44-2.72,.86-3.71,1.25-.99,.4-1.85,.86-2.59,1.38-.84,.61-1.49,1.32-1.94,2.15s-.67,1.82-.67,2.99c0,.81,.17,1.56,.51,2.24,.34,.68,.8,1.29,1.39,1.81,.57,.49,1.23,.87,1.96,1.14,.73,.27,1.49,.41,2.26,.41,2.12,0,3.9-.54,5.34-1.62,1.96-1.5,3.26-3.9,3.92-7.19l5.97-27.98h3.82l.38-2.08h-3.79l.89-4.1Zm-42.68,10.83c-.29,.47-.43,1.06-.43,1.77,0,.57,.11,1.05,.32,1.42s.57,.62,1.08,.76c-.2,1.5-.51,2.91-.91,4.23s-.89,2.46-1.44,3.44c-.56,.98-1.15,1.74-1.78,2.29-.63,.55-1.25,.82-1.86,.82-.52,0-.94-.06-1.27-.19-.32-.13-.58-.34-.78-.65-.22-.3-.38-.72-.47-1.26s-.14-1.24-.14-2.1c0-1.77,.32-3.79,.96-6.07,.66-2.33,1.5-4.28,2.53-5.87,1.11-1.75,2.25-2.63,3.42-2.63,.35,0,.65,.05,.87,.15,.23,.1,.42,.27,.57,.51,.29,.47,.46,1.26,.53,2.35-.51,.22-.9,.56-1.19,1.04Zm22.75,0c-.29,.47-.43,1.06-.43,1.77,0,.57,.11,1.05,.32,1.42s.57,.62,1.08,.76c-.2,1.5-.51,2.91-.91,4.23s-.89,2.46-1.44,3.44c-.56,.98-1.15,1.74-1.78,2.29-.63,.55-1.25,.82-1.86,.82-.52,0-.94-.06-1.27-.19-.32-.13-.58-.34-.78-.65-.22-.3-.38-.72-.47-1.26s-.14-1.24-.14-2.1c0-1.77,.32-3.79,.96-6.07,.66-2.33,1.5-4.28,2.53-5.87,1.11-1.75,2.25-2.63,3.42-2.63,.35,0,.65,.05,.87,.15,.23,.1,.42,.27,.57,.51,.29,.47,.46,1.26,.53,2.35-.51,.22-.9,.56-1.19,1.04Zm5.16,23.48c-.32,1.47-.75,2.53-1.29,3.19-.49,.57-1.04,.86-1.64,.86-.54,0-1.04-.19-1.49-.58-.39-.3-.58-.68-.58-1.14,0-1.3,.54-2.4,1.62-3.31,.88-.74,2.23-1.42,4.07-2.02l-.68,3.01Z"/><path class="cls-1" d="M433.91,516.47c-.39-.37-.83-.67-1.34-.89-.51-.22-1.04-.33-1.59-.33s-1.09,.11-1.59,.33c-.51,.22-.94,.51-1.32,.89-.37,.37-.66,.81-.87,1.32s-.32,1.04-.32,1.59,.11,1.09,.32,1.59c.21,.51,.5,.95,.87,1.32,.37,.37,.81,.66,1.32,.87,.51,.21,1.04,.32,1.59,.32s1.09-.11,1.59-.32c.51-.21,.95-.5,1.34-.87,.39-.37,.69-.81,.9-1.32,.21-.51,.32-1.04,.32-1.59s-.11-1.09-.32-1.59c-.21-.51-.51-.94-.9-1.32Z"/><path class="cls-1" d="M518.77,517.3c-.71,.84-1.58,1.26-2.61,1.26-.76,0-1.29-.19-1.61-.57-.31-.38-.47-.92-.47-1.61,0-.44,.07-1.01,.2-1.72,.27-1.37,.62-2.86,1.04-4.48,.24-.84,.44-1.68,.61-2.5,.42-1.99,.63-3.55,.63-4.68,0-1.99-.54-3.48-1.62-4.48-1.01-.91-2.39-1.37-4.12-1.37-1.21,0-2.34,.25-3.36,.76-1.45,.71-2.73,1.92-3.85,3.64-.27-1.53-.89-2.68-1.85-3.44-.86-.67-2.02-1.01-3.47-1.01-1.06,0-2.07,.18-3.01,.53-1.2,.47-2.3,1.27-3.31,2.4l.56-2.68h-7.46l-1.47,6.93s-.03,.02-.05,.02c-1.57,.64-2.93,.96-4.07,.96h-.3c-.07,0-.15-.02-.25-.05v-.05c0-5.52-2.22-8.27-6.65-8.27-3.24,0-6.03,1.15-8.38,3.44-1.94,1.87-3.43,4.38-4.48,7.51-.46,1.32-.79,2.62-1.01,3.91-.18,1.08-.27,2.06-.3,2.98-.52,.56-1,1.04-1.42,1.45-.61,.58-1.24,1.08-1.9,1.5-1.55,1.01-3.26,1.52-5.14,1.52-1.3,0-2.23-.29-2.78-.86-.64-.64-.96-1.8-.96-3.49,0-1.94,.34-4.11,1.01-6.5,.66-2.45,1.48-4.46,2.48-6.05,1.1-1.79,2.15-2.68,3.16-2.68,.47,0,.83,.19,1.08,.57s.37,.9,.37,1.56c0,.95-.21,1.97-.63,3.06,.64,.41,1.25,.61,1.82,.61,.79,0,1.44-.31,1.95-.94,.54-.67,.81-1.62,.81-2.83,0-1.38-.39-2.47-1.16-3.26-1-1-2.53-1.49-4.61-1.49-3.19,0-5.95,1.15-8.27,3.44-1.89,1.87-3.35,4.39-4.38,7.54-.44,1.3-.76,2.6-.97,3.91-.21,1.31-.32,2.49-.32,3.55,0,2.83,.73,4.93,2.2,6.3,1.38,1.28,3.35,1.92,5.9,1.92,3.12,0,5.99-1,8.6-2.99,1.18-.91,2.27-2,3.3-3.25,.3,1.82,1.03,3.24,2.19,4.26,1.4,1.25,3.38,1.87,5.95,1.87,1.59,0,3.09-.36,4.5-1.09,1.42-.72,2.67-1.76,3.77-3.11,1.11-1.38,2.02-3.04,2.73-4.97,.71-1.93,1.16-4.07,1.37-6.41,1.56-.26,3.01-.67,4.35-1.2l-3.51,16.59h7.46l3.52-16.62c.46-1.47,1-2.61,1.64-3.42,.73-.94,1.58-1.42,2.56-1.42,.54,0,.95,.23,1.24,.68,.22,.37,.33,.9,.33,1.59,0,.46-.05,.89-.15,1.29l-3.79,17.89h7.46l3.52-16.62c.46-1.47,1-2.6,1.62-3.39,.74-.93,1.55-1.39,2.43-1.39,1.25,0,1.87,.89,1.87,2.66,0,.73-.1,1.58-.29,2.57-.19,.99-.49,2.31-.87,3.96-.39,1.62-.68,2.94-.87,3.97-.19,1.03-.29,1.93-.29,2.71,0,1.64,.45,2.98,1.34,4.02,1.03,1.21,2.61,1.82,4.76,1.82,1.8,0,3.4-.54,4.78-1.62,1.96-1.52,3.58-4.17,4.86-7.97h-2.18c-.62,1.57-1.21,2.67-1.75,3.31Zm-45.29-13.21c-.29,.47-.43,1.06-.43,1.77,0,.57,.11,1.05,.32,1.42s.57,.62,1.08,.76c-.2,1.5-.51,2.91-.91,4.23-.4,1.32-.88,2.46-1.44,3.44-.56,.98-1.15,1.74-1.78,2.29-.63,.55-1.25,.82-1.86,.82-.52,0-.95-.06-1.26-.19-.32-.13-.58-.34-.79-.65-.22-.3-.38-.72-.47-1.26s-.14-1.24-.14-2.1c0-1.77,.32-3.79,.96-6.07,.66-2.33,1.5-4.28,2.53-5.87,1.11-1.75,2.25-2.63,3.42-2.63,.35,0,.65,.05,.87,.15s.42,.27,.57,.51c.29,.47,.46,1.26,.53,2.35-.51,.22-.9,.56-1.19,1.04Z"/></svg>